<svg width="25" height="25" xmlns="http://www.w3.org/2000/svg">
    <g>
        <title>Layer 1</title>
        <path d="m20.12908,13.64123l0,-2.04199q0,-0.41985 -0.30534,-0.72519t-0.72519,-0.28626l-4.42748,0l0,-4.44656q0,-0.41985 -0.30534,-0.70611t-0.72519,-0.30534l-2.04199,0q-0.41984,0 -0.72519,0.30534t-0.28626,0.70611l0,4.44656l-4.42748,0q-0.43893,0 -0.72519,0.28626t-0.30534,0.72519l0,2.04199q0,0.43893 0.30534,0.72519t0.72519,0.30534l4.42748,0l0,4.42748q0,0.41985 0.28626,0.72519t0.72519,0.30534l2.04199,0q0.43893,0 0.72519,-0.30534t0.30534,-0.72519l0,-4.42748l4.42748,0q0.43893,0 0.72519,-0.30534t0.30534,-0.72519z" fill="#FFFFFF" id="svg_1"/>
    </g>

</svg>